<?xml version="1.0" standalone="no"?>
<!DOCTYPE svg PUBLIC "-//W3C//DTD SVG 20010904//EN"
 "http://www.w3.org/TR/2001/REC-SVG-20010904/DTD/svg10.dtd">
<svg version="1.0" xmlns="http://www.w3.org/2000/svg"
 width="2000.000000pt" height="1500.000000pt" viewBox="0 0 2000.000000 1500.000000"
 preserveAspectRatio="xMidYMid meet">
<metadata>
Created by potrace 1.16, written by Peter Selinger 2001-2019
</metadata>
<g transform="translate(0.000000,1500.000000) scale(0.100000,-0.100000)"
fill="#000000" stroke="none">
<path d="M2500 7500 l0 -1600 7500 0 7500 0 0 1600 0 1600 -7500 0 -7500 0 0
-1600z m14860 0 l0 -1470 -7360 0 -7360 0 0 1470 0 1470 7360 0 7360 0 0
-1470z"/>
<path d="M2920 7500 l0 -1190 7080 0 7080 0 0 1190 0 1190 -7080 0 -7080 0 0
-1190z m2820 754 c173 -39 330 -163 409 -324 61 -125 82 -219 88 -385 17 -469
-205 -771 -597 -814 -330 -36 -599 117 -717 409 -77 191 -82 476 -12 684 51
154 130 262 247 339 157 104 371 138 582 91z m4500 1 c97 -20 173 -51 255
-106 41 -28 77 -54 80 -59 4 -7 -46 -122 -60 -138 -2 -2 -34 18 -71 44 -138
94 -262 130 -424 122 -207 -11 -324 -96 -337 -247 -15 -157 64 -221 367 -301
300 -79 366 -104 447 -174 148 -128 132 -407 -31 -541 -49 -40 -128 -81 -194
-100 -126 -38 -347 -37 -495 0 -82 21 -212 85 -262 128 l-40 35 30 62 c16 34
33 64 37 66 4 3 29 -12 55 -32 59 -46 147 -88 233 -111 49 -14 101 -18 210
-17 128 0 152 3 205 23 144 57 211 195 155 318 -34 76 -103 108 -390 182 -253
65 -349 108 -426 193 -50 56 -75 117 -81 201 -25 334 308 539 737 452z m4580
-6 c92 -23 200 -76 260 -128 l45 -39 -30 -62 c-16 -34 -33 -64 -37 -66 -4 -3
-28 12 -54 31 -182 139 -442 174 -632 85 -121 -56 -221 -189 -257 -343 -34
-142 -29 -376 12 -496 66 -198 191 -309 383 -341 171 -29 354 18 494 125 26
19 50 34 54 31 4 -2 21 -32 37 -66 l30 -62 -45 -39 c-60 -52 -168 -105 -265
-130 -111 -29 -299 -29 -408 0 -187 49 -328 163 -410 331 -56 113 -74 179 -88
320 -29 279 56 551 219 702 168 155 433 211 692 147z m-10899 -594 l454 -605
3 605 2 605 85 0 85 0 0 -760 0 -760 -70 0 -70 0 -455 607 -455 606 0 -606 0
-607 -85 0 -85 0 0 760 0 760 69 0 69 0 453 -605z m2880 -35 c150 -352 276
-640 279 -640 3 0 129 288 280 640 l275 640 92 0 93 0 -23 -52 c-13 -29 -163
-371 -333 -760 l-308 -708 -77 0 c-73 0 -76 1 -88 28 -14 29 -639 1458 -648
1480 -4 9 18 12 89 12 l95 0 274 -640z m1369 148 c0 -292 4 -520 11 -558 34
-215 177 -330 409 -330 213 0 345 82 402 250 22 63 23 78 26 598 l3 532 90 0
90 0 -3 -537 c-4 -473 -6 -545 -21 -598 -29 -101 -76 -186 -136 -245 -110
-109 -236 -151 -446 -151 -212 0 -335 42 -446 153 -62 61 -105 141 -134 248
-16 57 -19 127 -22 598 l-5 532 91 0 91 0 0 -492z m4340 412 l0 -80 -265 0
-265 0 0 -680 0 -680 -90 0 -90 0 0 680 0 680 -262 2 -263 3 -3 64 c-2 35 -1
70 2 77 4 12 112 14 621 14 l615 0 0 -80z m1170 5 l0 -75 -390 0 -390 0 0
-260 0 -260 368 -2 367 -3 3 -72 3 -73 -371 0 -370 0 0 -275 0 -275 390 0 390
0 0 -75 0 -75 -480 0 -480 0 0 760 0 760 480 0 480 0 0 -75z m1910 -260 l0
-335 450 0 450 0 0 335 0 335 90 0 90 0 0 -760 0 -760 -90 0 -90 0 0 345 0
345 -450 0 -450 0 0 -345 0 -345 -90 0 -90 0 0 760 0 760 90 0 90 0 0 -335z"/>
<path d="M5431 8109 c-61 -12 -160 -60 -206 -100 -56 -49 -111 -140 -142 -233
-22 -70 -27 -103 -30 -241 -7 -230 24 -358 115 -478 84 -109 193 -164 344
-174 268 -18 447 115 520 385 27 102 30 339 4 452 -35 154 -131 291 -244 349
-89 45 -246 63 -361 40z"/>
</g>
</svg>
